<?xml version="1.0" encoding="utf-8" standalone="no"?>
<svg xmlns="http://www.w3.org/2000/svg" version="1.2" viewBox="0 0 1431.201 189.379">
    <title>Taps</title>
    <desc>An excerpt from “Taps.”</desc>
    <path fill="none" stroke="#000" stroke-linejoin="bevel" stroke-width="2.73" d="M0 48.90300000000002 1431.201 48.90300000000002M0 73.70300000000009 1431.201 73.70300000000009M0 98.50300000000004 1431.201 98.50300000000004M0 123.303 1431.201 123.303M0 148.10300000000007 1431.201 148.10300000000007" class="StaffLines"/>
    <path fill="none" stroke="#000" stroke-linejoin="bevel" stroke-width="4.46" d="M1428.971 47.53899999999999 1428.971 149.46699999999998M1186.491 47.53899999999999 1186.491 149.46699999999998M366.06300000000005 47.53899999999999 366.06300000000005 149.46699999999998M782.5710000000001 47.53899999999999 782.5710000000001 149.46699999999998" class="BarLine"/>
    <path fill="none" stroke="#000" stroke-linejoin="bevel" stroke-width="2.48" d="M563.8399999999999 65.47000000000003 563.8399999999999 148.10300000000007M672.711 90.2700000000001 672.711 166.70400000000006M846.7910000000002 119.33500000000004 846.7910000000002 36.50300000000004M1053.8110000000001 119.33500000000004 1053.8110000000001 48.90300000000002M1145.8110000000001 119.33500000000004 1145.8110000000001 48.90300000000002M1220.961 90.2700000000001 1220.961 166.70400000000006M400.535 40.67000000000007 400.535 123.303M203.63900000000007 90.2700000000001 203.63900000000007 154.14100000000008M295.646 65.47000000000003 295.646 142.06600000000003" class="Stem"/>
    <path d="M1240.8475 73.005073c-9.6254 0-21.1265 8.044484-21.1265 17.266998 0 4.262499 3.069 9.021029 11.1135 9.021029 10.3076 0 21.1265-8.432029 21.1265-17.158542 0-5.859006-4.96-9.129485-11.1135-9.129485M1227.161 94.62757c-3.2705 0-3.968-2.666002-3.968-3.565003 0-4.867005 16.6625-13.392014 21.328-13.392014 2.3871 0 3.968 1.395002 3.968 3.565004 0 4.960005-16.7709 13.392013-21.328 13.392013M1114.831 127.47207c0 4.2625 3.069 9.02103 11.1135 9.02103 10.3076 0 21.1265-8.43203 21.1265-17.15854 0-5.85901-4.96-9.12949-11.1135-9.12949-9.6254 0-21.1265 8.13749-21.1265 17.267M420.42155 23.405073c-9.62549 0-21.12655 8.044484-21.12655 17.266998 0 4.262499 3.069 9.021029 11.11349 9.021029 10.30758 0 21.12654-8.432029 21.12654-17.158542 0-5.859006-4.96-9.129485-11.11348-9.129485M406.73501 45.02757c-3.2705 0-3.96801-2.666002-3.96801-3.565003 0-4.867005 16.66255-13.392014 21.32803-13.392014 2.38705 0 3.968 1.395002 3.968 3.565004 0 4.960005-16.77097 13.392013-21.32802 13.392013M1022.821 127.47207c0 4.2625 3.069 9.02103 11.1135 9.02103 10.3076 0 21.1265-8.43203 21.1265-17.15854 0-5.85901-4.96-9.12949-11.1135-9.12949-9.6254 0-21.1265 8.13749-21.1265 17.267M202.399 90.272071c0 4.262499 3.069 9.021029 11.11349 9.021029 10.30758 0 21.12654-8.432029 21.12654-17.158542 0-5.859006-4.96-9.129485-11.11348-9.129485-9.62549 0-21.12655 8.137484-21.12655 17.266998M836.92755 110.20507c-9.62549 0-21.12655 8.04449-21.12655 17.267 0 4.2625 3.069 9.02103 11.11349 9.02103 10.30758 0 21.12654-8.43203 21.12654-17.15854 0-5.85901-4.96-9.12949-11.11348-9.12949m-13.68654 21.6225c-3.2705 0-3.96801-2.666-3.96801-3.565 0-4.86701 16.66255-13.39202 21.32803-13.39202 2.38705 0 3.968 1.395 3.968 3.56501 0 4.96-16.77097 13.39201-21.32802 13.39201M671.471 90.272071c0 4.262499 3.069 9.021029 11.11349 9.021029 10.30758 0 21.12654-8.432029 21.12654-17.158542 0-5.859006-4.96-9.129485-11.11348-9.129485-9.62549 0-21.12655 8.137484-21.12655 17.266998M294.406 65.472071c0 4.262499 3.069 9.021029 11.11349 9.021029 10.30758 0 21.12654-8.432029 21.12654-17.158542 0-5.859006-4.96-9.129485-11.11348-9.129485-9.62549 0-21.12655 8.137484-21.12655 17.266998M562.6 65.472071c0 4.262499 3.069 9.021029 11.11349 9.021029 10.30758 0 21.12654-8.432029 21.12654-17.158542 0-5.859006-4.96-9.129485-11.11348-9.129485-9.62549 0-21.12655 8.137484-21.12655 17.266998" class="Note" style="stroke-width:.992001"/>
    <path d="m 30.798537,174.18914 c 0,6.55653 4.960005,15.19001 18.352019,15.19001 4.66548,0 8.742008,-1.19347 12.306962,-3.37905 5.363055,-3.76643 6.742532,-10.32296 6.742532,-16.56949 0,-3.85948 -0.588951,-8.32349 -1.580952,-13.98097 -0.294525,-1.984 -0.89905,-4.96 -1.488001,-8.83505 9.718435,-3.17748 16.956967,-13.29897 16.956967,-23.51353 0,-14.97304 -10.617486,-25.094524 -25.09455,-25.094524 C 56.001513,92.05453 55.009512,86.195475 54.219086,80.646519 64.635096,69.625983 71.873529,57.22597 71.873529,41.462479 c 0,-9.036534 -2.774428,-16.368016 -4.370955,-19.948148 -2.371477,-5.053253 -5.25453,-8.525257 -7.037057,-8.525257 -0.697475,0 -3.766429,1.193378 -7.036957,5.053253 -6.355056,7.548136 -8.137483,20.242674 -8.137483,28.566157 0,5.362956 0.496,10.230011 2.185477,21.343497 -0.108525,0.09305 -5.270005,5.347481 -7.347057,7.037057 C 31.093062,83.327996 18.6,95.418009 18.6,115.27355 c 0,18.53807 16.166541,33.12356 34.627085,33.12356 2.867478,0 5.548956,-0.29452 7.827483,-0.69747 1.890952,9.53243 3.084528,16.47644 3.084528,21.73097 0,10.32306 -5.363055,15.77906 -15.376016,15.77906 -2.387052,0 -4.464004,-0.496 -4.665579,-0.496 -0.09295,-0.10852 -0.294426,-0.20157 -0.294426,-0.29452 0,-0.20148 0.201475,-0.31 0.496001,-0.31 4.665479,-0.79053 9.315484,-4.75853 9.315484,-11.09801 0,-5.36306 -4.061054,-11.02054 -11.501061,-11.02054 -6.944007,0 -11.314962,5.65748 -11.314962,12.19854 M 51.537508,41.757004 C 52.436559,37.789 56.993514,27.37299 62.155094,27.37299 c 1.488001,0 3.859479,4.75843 3.859479,11.702437 0,10.32306 -7.626008,18.057593 -14.477065,24.800025 -0.588951,-3.968004 -1.084951,-7.827483 -1.084951,-11.996962 0,-3.673479 0.294525,-7.052532 1.084951,-10.121486 m 8.726534,101.974626 c -1.984002,0.40295 -3.859479,0.60443 -5.750531,0.60443 -14.182439,0 -26.287996,-9.92001 -26.287996,-24.9085 0,-12.09006 8.525028,-22.909025 17.267037,-30.457558 1.674002,-1.488001 3.270528,-2.867478 4.75853,-4.355479 0.883476,5.34748 1.580952,10.01296 2.278427,14.089489 -9.036434,2.681478 -15.17444,12.198538 -15.17444,21.529548 0,6.94401 5.456005,16.46102 13.392013,16.46102 0.790426,0 1.689477,-0.40296 1.689477,-1.28653 0,-0.89895 -0.992001,-1.39495 -2.185477,-2.18548 -3.875054,-2.387 -6.060531,-4.96 -6.060531,-9.82701 0,-6.045 4.572529,-10.91206 10.32296,-12.29154 l 5.750531,32.62761 m 14.089489,-18.35207 c 0,7.05252 -2.882953,14.29102 -9.92001,17.17407 -2.076952,-11.90406 -4.75843,-27.68308 -5.456005,-32.05413 8.928009,0 15.376015,6.06055 15.376015,14.88006" class="Clef" style="stroke-width:.992001"/>
    <path d="m 139.11203,80.739494 c -2.48,1.596527 -4.26253,4.464005 -4.26253,7.641582 0,0.402971 0,0.790476 0.0931,1.193477 0.496,4.061004 3.78201,7.238502 7.84296,7.734502 0.29453,0 0.79053,0 1.08505,0 4.96001,0 8.92801,-3.968004 8.92801,-8.927979 0,-0.697575 0,-1.379576 -0.186,-2.077051 -0.89905,-4.26253 -4.774,-13.392014 -21.63802,-13.392014 -21.62255,0 -24.10255,17.949038 -24.10255,24.397044 0,11.810995 1.488,26.598055 26.28803,26.598055 9.82706,0 17.46854,-5.766 17.85601,-16.38354 0,-0.496 -0.29452,-0.7905 -0.79052,-0.7905 h -1.28643 c -0.40305,0 -0.79052,0.40301 -0.79052,0.7905 -0.40305,8.24606 -6.26201,13.20606 -14.98854,13.20606 -8.63349,0 -12.80297,-4.66558 -12.80297,-13.39206 V 88.381076 c 0,-5.549055 2.18548,-11.904012 11.02044,-11.904012 4.66558,0 6.74253,1.689477 7.84306,3.378954 0.093,0.201475 0.093,0.294525 0.093,0.496001 0,0.09305 0,0.294525 -0.20148,0.387475" class="TimeSig" style="stroke-width:.992001"/>
    <path d="M 1258.5491,10.710536 C 1249.2336,0.58905019 1240.9876,0 1235.8416,0 c -5.1615,0 -13.2991,0.58905019 -22.6301,10.710536 -4.8515,5.362955 -8.2305,15.965016 -8.2305,21.328021 0,1.891002 0.403,3.177498 1.395,3.177498 2.7745,0 1.3795,-8.540503 9.7185,-16.972561 7.3316,-7.331483 17.1585,-7.440008 19.5456,-7.440008 h 0.3875 c 2.3869,0 12.214,0.108525 19.5455,7.440008 8.339,8.432058 6.944,16.972561 9.7185,16.972561 0.992,0 1.3949,-1.193496 1.3949,-3.177498 0,-5.363005 -3.2704,-16.073491 -8.1374,-21.328021 m -29.5586,18.941019 c 0,3.782004 3.0691,6.851007 6.8511,6.851007 3.7665,0 6.8354,-3.069003 6.8354,-6.851007 0,-3.766479 -3.0689,-6.835532 -6.8354,-6.835532 -3.782,0 -6.8511,3.069053 -6.8511,6.835532" class="Fermata" style="stroke-width:.992001"/>
    <path fill-rule="evenodd" d="m202.399 148.04956 94.487-12.4v12.507l-94.487 12.4v-12.507M296.886 117.04956l-27.28 3.58v12.507l27.28-3.58v-12.507M1052.571 42.702562h94.48v12.4h-94.48v-12.4M1147.051 61.302562h-27.28v12.4h27.28v-12.4" class="Beam"/>
    <path d="M1264.341 86.102562c0 2.774507 2.1855 4.960005 4.96 4.960005 2.7745 0 4.96-2.185498 4.96-4.960005 0-2.774508-2.1855-4.960005-4.96-4.960005-2.7745 0-4.96 2.185497-4.96 4.960005M1067.451 110.90256c0 2.77451 2.1855 4.96001 4.96 4.96001 2.7745 0 4.96-2.1855 4.96-4.96001 0-2.77451-2.1855-4.96-4.96-4.96-2.7745 0-4.96 2.18549-4.96 4.96M860.431 110.90256c0 2.77451 2.18551 4.96001 4.96001 4.96001 2.7745 0 4.96-2.1855 4.96-4.96001 0-2.77451-2.1855-4.96-4.96-4.96-2.7745 0-4.96001 2.18549-4.96001 4.96M247.023 86.102562c0 2.774507 2.18551 4.960005 4.96 4.960005 2.77451 0 4.96001-2.185498 4.96001-4.960005 0-2.774508-2.1855-4.960005-4.96001-4.960005-2.77449 0-4.96 2.185497-4.96 4.960005" class="NoteDot" style="stroke-width:.992001"/>
</svg>
