<?xml version="1.0" encoding="utf-8" standalone="no"?>
<svg xmlns="http://www.w3.org/2000/svg" version="1.2" viewBox="0 0 1791.201 222.464">
    <title>Sometimes I Feel Like a Motherless Child</title>
    <desc>An excerpt from “Sometimes I Feel Like a Motherless Child.”</desc>
    <path fill="none" stroke="#000" stroke-linejoin="bevel" stroke-width="2.73" d="M0 35.91300000000001 1791.2010000000002 35.91300000000001M0 60.71300000000008 1791.2010000000002 60.71300000000008M0 85.51300000000003 1791.2010000000002 85.51300000000003M0 110.31299999999999 1791.2010000000002 110.31299999999999M0 135.11300000000006 1791.2010000000002 135.11300000000006" class="StaffLines"/>
    <path fill-rule="evenodd" stroke="#000" stroke-linecap="round" stroke-linejoin="round" stroke-width="1.24" d="M1464.251 103.71049c39.12 22.999 156.51 22.999 195.63 0-39.12 30.935-156.51 30.935-195.63 0M564.35 30.116487c42.669-31.9219998 170.671-31.9219998 213.341 0-42.67-23.9859998-170.672-23.9859998-213.341 0" class="TieSegment"/>
    <path fill="none" stroke="#000" stroke-linejoin="bevel" stroke-width="4.46" d="M728.8910000000001 34.54899999999998 728.8910000000001 136.47699999999998M1398.221 34.54899999999998 1398.221 136.47699999999998M1048.761 34.54899999999998 1048.761 136.47699999999998M1631.611 34.54899999999998 1631.611 136.47699999999998M510.49600000000004 34.54899999999998 510.49600000000004 136.47699999999998M1788.9710000000002 34.54899999999998 1788.9710000000002 136.47699999999998" class="BarLine"/>
    <path fill="none" stroke="#000" stroke-linejoin="bevel" stroke-width="2.48" d="M337.06700000000006 52.48000000000002 337.06700000000006 153.71400000000006M1447.7810000000002 89.68000000000006 1447.7810000000002 159.914M1275.3410000000001 77.28000000000009 1275.3410000000001 153.71400000000006M1177.641 64.88 1177.641 135.034M1083.241 52.48000000000002 1083.241 128.99300000000005M966.511 64.88 966.511 135.20500000000004M885.251 77.28000000000009 885.251 141.22199999999998M763.3610000000001 52.48000000000002 763.3610000000001 135.11300000000006M545.056 52.48000000000002 545.056 135.11300000000006M200.16699999999997 77.28000000000009 200.16699999999997 153.71400000000006M440.08 77.28000000000009 440.08 153.71400000000006M1666.0810000000001 89.68000000000006 1666.0810000000001 159.914" class="Stem"/>
    <path d="M564.94255 35.215999c-9.62549 0-21.12655 8.044483-21.12655 17.266997 0 4.2625 3.069 9.021029 11.11349 9.021029 10.30758 0 21.12654-8.432028 21.12654-17.158542 0-5.859006-4.96-9.129484-11.11348-9.129484m-13.68654 21.622497c-3.2705 0-3.96801-2.666003-3.96801-3.565004 0-4.867005 16.66255-13.392013 21.32803-13.392013 2.38705 0 3.968 1.395001 3.968 3.565003 0 4.960005-16.77097 13.392014-21.32802 13.392014M335.827 52.482996c0 4.2625 3.069 9.021029 11.11349 9.021029 10.30758 0 21.12654-8.432028 21.12654-17.158542 0-5.859006-4.96-9.129484-11.11348-9.129484-9.62549 0-21.12655 8.137483-21.12655 17.266997M198.927 77.282996c0 4.2625 3.069 9.021029 11.11349 9.021029 10.30758 0 21.12654-8.432028 21.12654-17.158542 0-5.859006-4.96-9.129484-11.11348-9.129484-9.62549 0-21.12655 8.137483-21.12655 17.266997M1274.101 77.282996c0 4.2625 3.069 9.021029 11.1135 9.021029 10.3076 0 21.1265-8.432028 21.1265-17.158542 0-5.859006-4.96-9.129484-11.1135-9.129484-9.6254 0-21.1265 8.137483-21.1265 17.266997M1664.841 89.682996c0 4.2625 3.069 9.021029 11.1135 9.021029 10.3076 0 21.1265-8.432028 21.1265-17.158542 0-5.859006-4.96-9.129484-11.1135-9.129484-9.6254 0-21.1265 8.137483-21.1265 17.266997M1467.6675 72.415999c-9.6254 0-21.1265 8.044483-21.1265 17.266997 0 4.2625 3.069 9.021029 11.1135 9.021029 10.3076 0 21.1265-8.432028 21.1265-17.158542 0-5.859006-4.96-9.129484-11.1135-9.129484m-13.6865 21.622497c-3.2705 0-3.968-2.666003-3.968-3.565004 0-4.867005 16.6625-13.392013 21.328-13.392013 2.3871 0 3.968 1.395001 3.968 3.565003 0 4.960005-16.7709 13.392014-21.328 13.392014M1176.401 64.882996c0 4.2625 3.069 9.021029 11.1135 9.021029 10.3076 0 21.1265-8.432028 21.1265-17.158542 0-5.859006-4.96-9.129484-11.1135-9.129484-9.6254 0-21.1265 8.137483-21.1265 17.266997M1082.001 52.482996c0 4.2625 3.069 9.021029 11.1135 9.021029 10.3076 0 21.1265-8.432028 21.1265-17.158542 0-5.859006-4.96-9.129484-11.1135-9.129484-9.6254 0-21.1265 8.137483-21.1265 17.266997M438.84 77.282996c0 4.2625 3.069 9.021029 11.11349 9.021029 10.30758 0 21.12654-8.432028 21.12654-17.158542 0-5.859006-4.96-9.129484-11.11348-9.129484-9.62549 0-21.12655 8.137483-21.12655 17.266997M965.271 64.882996c0 4.2625 3.069 9.021029 11.11349 9.021029 10.30758 0 21.12654-8.432028 21.12654-17.158542 0-5.859006-4.96-9.129484-11.11348-9.129484-9.62549 0-21.12655 8.137483-21.12655 17.266997M884.011 77.282996c0 4.2625 3.069 9.021029 11.11349 9.021029 10.30758 0 21.12654-8.432028 21.12654-17.158542 0-5.859006-4.96-9.129484-11.11348-9.129484-9.62549 0-21.12655 8.137483-21.12655 17.266997M762.121 52.482996c0 4.2625 3.069 9.021029 11.11349 9.021029 10.30758 0 21.12654-8.432028 21.12654-17.158542 0-5.859006-4.96-9.129484-11.11348-9.129484-9.62549 0-21.12655 8.137483-21.12655 17.266997" class="Note" style="stroke-width:.992001"/>
    <path d="m 30.798537,161.20006 c 0,6.55653 4.960005,15.19002 18.352019,15.19002 4.66548,0 8.742008,-1.19348 12.306962,-3.37905 5.363055,-3.76643 6.742532,-10.32297 6.742532,-16.5695 0,-3.85948 -0.588951,-8.32348 -1.580952,-13.98096 -0.294525,-1.984 -0.89905,-4.96001 -1.488001,-8.83506 9.718435,-3.17748 16.956967,-13.29896 16.956967,-23.51352 0,-14.973043 -10.617486,-25.094528 -25.09455,-25.094528 C 56.001513,79.065456 55.009512,73.2064 54.219086,67.657444 64.635096,56.636908 71.873529,44.236896 71.873529,28.473405 c 0,-9.036534 -2.774428,-16.368017 -4.370955,-19.9481484 C 65.131097,3.4720035 62.248044,0 60.465517,0 59.768042,0 56.699088,1.1933772 53.42856,5.0532531 47.073504,12.601389 45.291077,25.295926 45.291077,33.61941 c 0,5.362956 0.496,10.23001 2.185477,21.343497 -0.108525,0.09305 -5.270005,5.34748 -7.347057,7.037056 C 31.093062,70.338922 18.6,82.428934 18.6,102.28448 c 0,18.53807 16.166541,33.12356 34.627085,33.12356 2.867478,0 5.548956,-0.29453 7.827483,-0.69748 1.890952,9.53244 3.084528,16.47644 3.084528,21.73097 0,10.32306 -5.363055,15.77907 -15.376016,15.77907 -2.387052,0 -4.464004,-0.496 -4.665579,-0.496 -0.09295,-0.10853 -0.294426,-0.20158 -0.294426,-0.29453 0,-0.20147 0.201475,-0.31 0.496001,-0.31 4.665479,-0.79052 9.315484,-4.75853 9.315484,-11.09801 0,-5.36305 -4.061054,-11.02053 -11.501061,-11.02053 -6.944007,0 -11.314962,5.65748 -11.314962,12.19853 M 51.537508,28.76793 c 0.899051,-3.968004 5.456006,-14.384015 10.617586,-14.384015 1.488001,0 3.859479,4.758431 3.859479,11.702438 0,10.32306 -7.626008,18.057592 -14.477065,24.800025 -0.588951,-3.968004 -1.084951,-7.827483 -1.084951,-11.996963 0,-3.673479 0.294525,-7.052532 1.084951,-10.121485 m 8.726534,101.97463 c -1.984002,0.40295 -3.859479,0.60442 -5.750531,0.60442 -14.182439,0 -26.287996,-9.92001 -26.287996,-24.9085 0,-12.090058 8.525028,-22.90902 17.267037,-30.457552 1.674002,-1.488002 3.270528,-2.867478 4.75853,-4.35548 0.883476,5.347481 1.580952,10.012961 2.278427,14.08949 -9.036434,2.681478 -15.17444,12.198537 -15.17444,21.529542 0,6.94401 5.456005,16.46102 13.392013,16.46102 0.790426,0 1.689477,-0.40295 1.689477,-1.28653 0,-0.89895 -0.992001,-1.39495 -2.185477,-2.18547 -3.875054,-2.38701 -6.060531,-4.96001 -6.060531,-9.82701 0,-6.04501 4.572529,-10.912063 10.32296,-12.29154 l 5.750531,32.62761 m 14.089489,-18.35207 c 0,7.05251 -2.882953,14.29101 -9.92001,17.17407 -2.076952,-11.90407 -4.75843,-27.68308 -5.456005,-32.054135 8.928009,0 15.376015,6.060555 15.376015,14.880065" class="Clef" style="stroke-width:.992001"/>
    <path d="M142.69251 65.084491c-.79043 2.170002-2.77443 9.315534-7.64148 9.315534-6.44801 0-7.84296-3.968024-13.19054-3.968024-.79043 0-1.59643.108496-2.58843.294496 0 0 2.48-3.766499 13.00444-7.037007 10.50906-3.270504 13.19054-8.432009 13.19054-14.384015 0-4.169479-1.87548-12.400012-16.86402-12.400012-14.97302 0-17.76302 9.020959-17.76302 13.593489 0 4.061024 3.37901 7.331532 7.44001 7.331532 4.07648 0 7.34701-3.270508 7.34701-7.331532 0-2.774528-1.984-5.858957-4.55696-6.850958-.31-.09305-.69757-.58905-.69757-1.08505 0-.604526.496-1.286526 2.27852-1.782527.496-.201475 1.89106-.496 3.37906-.496 5.642 0 6.74243 3.472003 6.74243 8.525058 0 11.609511-13.79496 14.089519-19.5455 22.723072 0 0-2.976 4.154004-2.976 8.819484 0 4.66548 2.387 4.960005 3.56501 4.960005 1.5965 0 3.286-1.286526 3.286-3.069052 0-.402951-.1085-.790427-.31-1.286427-.589-1.395051-.7905-2.480003-.7905-3.286004 0-.294525 0-.58905.1085-.883575.093-.604426.8835-1.596427 3.27048-1.596427 2.86757 0 3.968 3.378954 5.75053 5.952006 1.78252 2.588428 4.55705 4.169479 7.73453 4.169479 3.17748 0 7.44001-2.278527 9.23801-5.952006 1.78253-3.673479 4.06095-11.113536 4.06095-13.779538 0-1.302002-.79042-1.891002-1.68947-1.891002-.69748 0-1.37948.403-1.78253 1.395001M126.12355 122.91498v7.33158h-8.23054c-.69747 0-1.39495.60442-1.39495 1.39495v1.89105c0 .79043.69748 1.37948 1.39495 1.37948h30.05456c.806 0 1.39495-.58905 1.39495-1.37948v-1.89105c0-.79053-.58895-1.39495-1.39495-1.39495h-8.81949v-7.33158h8.81949c.806 0 1.39495-.69748 1.39495-1.48801V119.536c0-.6975-.58895-1.3795-1.39495-1.3795h-8.81949v-15.77902c0-.589-.29452-1.085-.79052-1.28651l-1.19348-.60449c-.20157-.093-.496-.18605-.69757-.18605-.29443.093-.69748.18605-.89895.38754l-9.02106 8.23052c-.29443.31-.40295.6975-.40295 1.1005v8.13751h-11.40804c0 0 11.02056-11.90402 22.723-27.590082.40305-.496001.496-.992001.496-1.379477 0-.496-.20148-.898951-.29443-.992001l-2.18557-2.185477c-.20148-.201476-.58896-.40305-.99201-.40305-.58895 0-13.99644 0-14.67844 0-.806 0-1.302.604525-1.39505 1.193575 0 0-.496 7.346958-3.069 15.375982-2.5885 8.04452-5.5645 13.00452-8.1375 16.66253 0 0-.29451.496-.29451 1.1005 0 .2015 0 .38755.093.58902.403.69748.992 1.78253.992 1.78253 0 0 .20151.60443 1.085.60443h17.06555" class="TimeSig" style="stroke-width:.992001"/>
    <path fill-rule="evenodd" d="m1082.001 122.70149 96.88 6.2v12.425l-96.88-6.2v-12.425M884.011 135.09749l83.74-6.2v12.433l-83.74 6.2v-12.433M198.927 147.51449H441.32v12.4H198.927v-12.4M441.32 128.91349h-27.28v12.4h27.28v-12.4" class="Beam"/>
    <path d="M1425.001 214.37049c-1.6 3.594-3.3 5.047-5.89 5.047-4 0-6.5-3.657-6.5-9.5 0-6.11 2.45-10.11 6.14-10.11 1.5 0 2.81.703 2.81 1.5 0 .157-.06.313-.31.61-.8.953-1 1.453-1 2.297 0 1.656 1.25 2.796 3 2.796 1.81 0 3.06-1.39 3.06-3.39 0-3.406-3.36-5.953-7.81-5.953-6.5 0-11.14 5.297-11.14 12.797 0 7.093 4.25 12 10.45 12 4.44 0 7-2.047 9.14-7.344l-1.95-.75m12.28-29.516-9.25.563v2.14h2.4c1.89.047 2.14.36 2.14 2.5v27.907c-.04.703-.09 1-.29 1.25-.35.453-1.3.656-3.46.703h-.2v1.797h12.66v-1.797h-.21c-3.34-.11-3.79-.36-3.79-2.157v-7.39c0-2.453.34-4.703.9-5.86 1.1-2.25 3.3-3.796 5.44-3.796 1.31 0 2.81.75 3.5 1.75.81 1.093 1.16 2.593 1.16 5.046v10.454c-.05.703-.1 1-.3 1.25-.36.453-1.36.656-3.5.703h-.2v1.797h12.65v-1.797h-.2c-3.3-.11-3.75-.36-3.75-2.157v-10.046c0-3.594-.16-4.5-1.05-6.204-1.25-2.453-3.75-3.843-6.75-3.843-3.25 0-5.65 1.453-7.9 4.797v-17.61m28.5 1.11c-1.61 0-2.91 1.296-2.91 2.89 0 1.61 1.3 2.906 2.86 2.906 1.64 0 2.94-1.296 2.94-2.906 0-1.594-1.3-2.89-2.89-2.89m2.34 12.453-9.39.547v2.156h2.55c1.89.047 2.14.344 2.14 2.5v14.297c-.05.75-.1 1.047-.3 1.297-.34.453-1.3.656-3.45.703h-.35v1.797h12.96v-1.797h-.36c-3.35-.11-3.8-.36-3.8-2.157v-19.343m15.64-13.563-9.25.563v2.14h2.45c1.85.047 2.1.36 2.1 2.5v27.86c-.05.75-.1 1.047-.3 1.297-.36.453-1.3.656-3.45.703h-.35v1.797h12.94v-1.797h-.34c-3.35-.11-3.8-.36-3.8-2.157v-32.906m24.53 37.203 8.71-.343v-2.157h-.91c-2.84-.14-3.09-.437-3.09-3.64v-31.063l-9.8.563v2.14h2.94c1.9.047 2.15.36 2.15 2.5v11.313c-1.84-2.563-4-3.703-6.9-3.703-5.64 0-9.94 5.453-9.94 12.64 0 7.11 4.14 12.157 9.94 12.157 3.15 0 5.31-1.344 6.9-4.344v3.937m-5.9-21.687c2.06 0 4 1.5 4.9 3.797.66 1.5.96 3.547.96 6 0 5.843-2.3 9.593-5.91 9.593-3.55 0-5.64-3.296-5.64-8.843 0-3 .3-5.25.94-6.907.86-2.25 2.7-3.64 4.75-3.64M867.321 184.85449l-9.25.563v2.14h2.46c1.84.047 2.09.36 2.09 2.5v27.86c-.05.75-.09 1.047-.3 1.297-.35.453-1.29.656-3.45.703h-.34v1.797h12.94v-1.797h-.35c-3.34-.11-3.8-.36-3.8-2.157v-32.906m13.49 1.11c-1.61 0-2.91 1.296-2.91 2.89 0 1.61 1.3 2.906 2.86 2.906 1.64 0 2.94-1.296 2.94-2.906 0-1.594-1.3-2.89-2.89-2.89m2.34 12.453-9.39.547v2.156h2.55c1.89.047 2.14.344 2.14 2.5v14.297c-.05.75-.09 1.047-.3 1.297-.34.453-1.29.656-3.45.703h-.34v1.797h12.95v-1.797h-.36c-3.34-.11-3.8-.36-3.8-2.157v-19.343m15.39 11.203v-24.766l-9.25.563v2.14h2.39c1.91.047 2.16.36 2.16 2.5v27.907c-.05.703-.09 1-.3 1.25-.36.453-1.29.656-3.45.703h-.2v1.797h12.65v-1.797h-.2c-3.34-.11-3.8-.36-3.8-2.157v-5.046l3.05-2.907 5.95 8.36c.25.39.35.64.35.843 0 .704-.55.907-2.21.907h-.93v1.797h13.2v-1.797c-2.81-.25-3.81-.86-5.86-3.453l-7.09-9.704 2.25-2.203c2.93-2.843 5.04-3.937 8.45-4.343v-1.797h-13.16v1.797h1.55c1.59 0 2.34.296 2.34.953 0 .547-.34 1.14-1.14 1.953l-6.75 6.5m42.03.844c.05-7.5-4.2-12.797-10.29-12.797-6.41 0-11.21 5.547-11.21 13.047 0 7.046 4.55 11.75 11.3 11.75 4.8 0 8.16-2.344 10.2-7.094l-1.75-.953c-2.04 3.843-4.15 5.343-7.5 5.343-2.54 0-4.4-1.046-5.7-3.296-.89-1.5-1.3-3.25-1.25-6h16.2m-16.15-2.157c0-3.5 1.61-8.5 5.81-8.5 3 0 5 2.657 5 6.703 0 1.407-.45 1.797-2.06 1.797h-8.75M1257.411 184.85449l-9.25.563v2.14h2.45c1.85.047 2.1.36 2.1 2.5v27.86c-.05.75-.1 1.047-.3 1.297-.36.453-1.3.656-3.45.703h-.35v1.797h12.94v-1.797h-.34c-3.35-.11-3.8-.36-3.8-2.157v-32.906m28.78 25.61c.05-7.5-4.2-12.797-10.29-12.797-6.41 0-11.21 5.547-11.21 13.047 0 7.046 4.55 11.75 11.3 11.75 4.8 0 8.16-2.344 10.2-7.094l-1.75-.953c-2.04 3.843-4.15 5.343-7.5 5.343-2.54 0-4.4-1.046-5.7-3.296-.89-1.5-1.3-3.25-1.25-6h16.2m-16.15-2.157c0-3.5 1.61-8.5 5.81-8.5 3 0 5 2.657 5 6.703 0 1.407-.45 1.797-2.06 1.797h-8.75m37.18-10.437h-1.75l-1.45 1.797c-1.8-1.407-3.59-2-6.09-2-4.41 0-7.3 2.843-7.3 7.25 0 4.703 3.05 5.89 7.05 6.843l2.64.61c3.95.937 5.36 1.937 5.36 3.937 0 2.36-2.05 4-4.96 4-4.25 0-7.25-2.687-8.45-7.687h-2v9.437h1.75l1.75-2.047c2.05 1.657 4.3 2.454 6.86 2.454 4.89 0 8.14-3.047 8.14-7.704 0-2.203-.7-3.89-2.09-5.046-1.21-1.047-2.21-1.454-5.25-2.094l-2.5-.563c-2.75-.593-2.75-.593-3.66-1.093-1.09-.5-1.75-1.547-1.75-2.657 0-2.047 1.91-3.437 4.66-3.437 4.09 0 6.09 2.89 7.29 6.39h1.75v-8.39m22.94 0h-1.75l-1.45 1.797c-1.8-1.407-3.6-2-6.1-2-4.4 0-7.29 2.843-7.29 7.25 0 4.703 3.04 5.89 7.04 6.843l2.65.61c3.95.937 5.35 1.937 5.35 3.937 0 2.36-2.04 4-4.95 4-4.25 0-7.25-2.687-8.45-7.687h-2v9.437h1.75l1.75-2.047c2.05 1.657 4.3 2.454 6.86 2.454 4.89 0 8.14-3.047 8.14-7.704 0-2.203-.7-3.89-2.1-5.046-1.2-1.047-2.2-1.454-5.25-2.094l-2.5-.563c-2.75-.593-2.75-.593-3.65-1.093-1.1-.5-1.75-1.547-1.75-2.657 0-2.047 1.9-3.437 4.65-3.437 4.1 0 6.1 2.89 7.3 6.39h1.75v-8.39M1153.711 198.41749v-9.907h-2.05c-.5 6.5-2.7 9.797-6.75 10.11v1.937h4.1v12.75c0 3.5.09 4.75.59 5.907.81 2.093 2.81 3.25 5.71 3.25 4.5 0 7.4-3.407 7.4-8.704 0-.296 0-.64-.05-1.14h-2.1c-.15 4.5-1.46 6.797-3.9 6.797-1.15 0-2.15-.61-2.5-1.453-.31-.704-.45-1.954-.45-3.75v-13.657h7.35v-2.14h-7.35m19.67-13.563-9.25.563v2.14h2.41c1.89.047 2.14.36 2.14 2.5v27.907c-.05.703-.09 1-.3 1.25-.34.453-1.29.656-3.45.703h-.2v1.797h12.65v-1.797h-.2c-3.34-.11-3.8-.36-3.8-2.157v-7.39c0-2.453.35-4.703.91-5.86 1.09-2.25 3.3-3.796 5.44-3.796 1.31 0 2.81.75 3.5 1.75.81 1.093 1.15 2.593 1.15 5.046v10.454c-.04.703-.09 1-.29 1.25-.36.453-1.36.656-3.5.703h-.21v1.797h12.66v-1.797h-.2c-3.3-.11-3.75-.36-3.75-2.157v-10.046c0-3.594-.16-4.5-1.05-6.204-1.25-2.453-3.75-3.843-6.75-3.843-3.25 0-5.66 1.453-7.91 4.797v-17.61m43.8 25.61c.05-7.5-4.2-12.797-10.3-12.797-6.4 0-11.2 5.547-11.2 13.047 0 7.046 4.55 11.75 11.3 11.75 4.79 0 8.15-2.344 10.2-7.094l-1.75-.953c-2.05 3.843-4.16 5.343-7.5 5.343-2.55 0-4.41-1.046-5.7-3.296-.89-1.5-1.3-3.25-1.25-6h16.2m-16.16-2.157c0-3.5 1.61-8.5 5.82-8.5 3 0 5 2.657 5 6.703 0 1.407-.46 1.797-2.07 1.797h-8.75m27.8-9.89-8.86.547v2.156h2.05c1.9.047 2.15.344 2.15 2.5v14.297c-.04.75-.09 1.047-.29 1.297-.36.453-1.36.656-3.5.703h-.21v1.797h13.35v-1.797h-.89c-3.36-.11-3.8-.36-3.8-2.157v-2.703c.05-8.39 3.05-14.797 6.94-15-.69.813-.89 1.313-.89 2.25 0 1.61 1.14 2.75 2.75 2.75 1.84 0 3.04-1.343 3.04-3.343 0-2.454-1.7-4.047-4.34-4.047-3.16 0-5.86 2.5-7.5 6.953v-6.203M1073.661 198.41749l-8.9.547v2.156h2.05c1.89.047 2.14.344 2.14 2.5v14.297c-.04.75-.09 1.047-.29 1.297-.35.453-1.3.656-3.46.703h-.19v1.797h12.6v-1.797h-.2c-3.3-.11-3.75-.36-3.75-2.203v-9.25c0-4.454 2.45-7.75 5.7-7.75 2.84 0 4.3 2.046 4.3 6.093v11.157c-.05.656-.1 1-.35 1.25-.3.453-1.3.656-3.45.703h-.2v1.797h12.65v-1.797h-.2c-3.3-.11-3.75-.36-3.75-2.157v-8.843c0-5 2.25-8.203 5.75-8.203 2.86 0 4.25 2.156 4.25 6.656v10.547c-.05.703-.1 1.047-.35 1.297-.29.453-1.29.656-3.45.703h-.2v1.797h12.65v-1.797h-.2c-3.3-.11-3.75-.36-3.75-2.203v-11.344c0-3.11-.3-4.156-1.59-5.86-1.46-1.843-3.5-2.843-5.91-2.843-3.25 0-5.65 1.547-7.8 5-.85-3-3.56-5-6.9-5-3.05 0-5.25 1.453-7.2 4.593v-3.843m46.98-.75c-6.14 0-10.89 5.453-10.89 12.453 0 6.844 4.8 12.344 10.8 12.344 6 0 10.79-5.5 10.79-12.407 0-6.843-4.79-12.39-10.7-12.39m0 2.14c3.5 0 5.45 3.657 5.45 10.25 0 6.657-1.95 10.25-5.54 10.25-3.6 0-5.55-3.593-5.55-10.187 0-6.813 1.89-10.313 5.64-10.313M988.981 205.62049c0-3.156-.55-4.75-2-5.953-1.64-1.36-4.1-2-7.3-2-5.64 0-9.75 2.64-9.75 6.297 0 1.843 1.16 3.046 2.91 3.046 1.59 0 2.7-1.046 2.7-2.546 0-.657-.25-1.344-.75-2.047-.31-.36-.36-.453-.36-.703 0-1 2-1.907 4.41-1.907 1.59 0 3.34.5 4.14 1.25.95.813 1.31 2 1.31 4.25v1.953c-5.2.907-6.86 1.297-9.31 2.25-4.35 1.61-6.39 3.907-6.39 7.11 0 3.594 2.79 5.844 7.25 5.844 3.45 0 6.54-1.407 8.7-3.954.8 2.547 2.05 3.547 4.39 3.547 2.25 0 4.61-1.437 4.61-2.89 0-.36-.2-.61-.5-.61-.2 0-.41.063-.75.203-.7.297-1 .36-1.41.36-1.4 0-1.9-.906-1.9-3.453v-10.047m-4.69 6.094c0 3-.16 3.703-1 5-1.25 1.843-3.5 3.093-5.7 3.093-2.3 0-3.96-1.64-3.96-3.89 0-2.11 1.05-3.61 3.25-4.657 1.55-.703 3.5-1.203 7.41-1.843v2.297M528.975 198.41749v-2.86c0-2.5.156-4.14.547-5.14.812-2.203 2.562-3.563 4.562-3.563 1.047 0 1.688.313 1.688.86 0 .203 0 .25-.297.64-.297.453-.453 1.063-.453 1.61 0 1.5 1.203 2.64 2.75 2.64 1.656 0 2.812-1.25 2.812-3.047 0-2.89-2.5-4.703-6.562-4.703-3.438 0-6 1.203-7.75 3.703-1.5 2.11-2 4.25-2 8.313v1.547h-4.391v2.14h4.391v17.36c-.047.703-.094 1-.297 1.297-.344.453-1.297.656-3.453.703h-.188v1.797h13.344v-1.797h-.906c-3.344-.11-3.797-.36-3.797-2.157v-17.203h5.5v-2.14h-5.5m28.484 12.047c.047-7.5-4.203-12.797-10.296-12.797-6.407 0-11.204 5.547-11.204 13.047 0 7.046 4.547 11.75 11.297 11.75 4.797 0 8.157-2.344 10.203-7.094l-1.75-.953c-2.046 3.843-4.156 5.343-7.5 5.343-2.546 0-4.406-1.046-5.703-3.296-.89-1.5-1.297-3.25-1.25-6h16.203m-16.156-2.157c0-3.5 1.61-8.5 5.813-8.5 3 0 5 2.657 5 6.703 0 1.407-.453 1.797-2.063 1.797h-8.75m41.141 2.157c.047-7.5-4.203-12.797-10.297-12.797-6.406 0-11.203 5.547-11.203 13.047 0 7.046 4.547 11.75 11.297 11.75 4.797 0 8.156-2.344 10.203-7.094l-1.75-.953c-2.047 3.843-4.156 5.343-7.5 5.343-2.547 0-4.406-1.046-5.703-3.296-.891-1.5-1.297-3.25-1.25-6h16.203m-16.156-2.157c0-3.5 1.609-8.5 5.812-8.5 3 0 5 2.657 5 6.703 0 1.407-.453 1.797-2.062 1.797h-8.75m26.89-23.453-9.25.563v2.14h2.453c1.844.047 2.094.36 2.094 2.5v27.86c-.047.75-.094 1.047-.297 1.297-.359.453-1.297.656-3.453.703h-.344v1.797h12.938v-1.797h-.344c-3.344-.11-3.797-.36-3.797-2.157v-32.906M446.858 187.96449h1c2.844.046 3.797.203 4.188.703.312.437.312.593.312 3.093v23.797c0 2.5 0 2.657-.312 3.11-.391.5-1.344.703-4.188.703h-1v2.344h16.547v-2.344h-1c-2.797 0-3.75-.156-4.156-.703-.297-.453-.297-.547-.297-3.11v-23.797c0-2.546 0-2.656.297-3.093.406-.5 1.297-.657 4.156-.703h1v-2.36h-16.547v2.36M298.642 198.41749v-9.907h-2.047c-.5 6.5-2.703 9.797-6.75 10.11v1.937h4.094v12.75c0 3.5.094 4.75.594 5.907.812 2.093 2.812 3.25 5.703 3.25 4.5 0 7.406-3.407 7.406-8.704 0-.296 0-.64-.047-1.14h-2.109c-.141 4.5-1.453 6.797-3.891 6.797-1.156 0-2.156-.61-2.5-1.453-.312-.704-.453-1.954-.453-3.75v-13.657h7.344v-2.14h-7.344m17.688-12.453c-1.61 0-2.907 1.296-2.907 2.89 0 1.61 1.297 2.906 2.86 2.906 1.64 0 2.937-1.296 2.937-2.906 0-1.594-1.297-2.89-2.89-2.89m2.343 12.453-9.39.547v2.156h2.547c1.89.047 2.14.344 2.14 2.5v14.297c-.047.75-.093 1.047-.297 1.297-.343.453-1.296.656-3.453.703h-.343v1.797h12.953v-1.797h-.36c-3.343-.11-3.797-.36-3.797-2.157v-19.343m15.485 0-8.891.547v2.156h2.047c1.891.047 2.141.344 2.141 2.5v14.297c-.047.75-.094 1.047-.297 1.297-.344.453-1.297.656-3.453.703h-.188v1.797h12.594v-1.797h-.203c-3.297-.11-3.75-.36-3.75-2.203v-9.25c0-4.454 2.453-7.75 5.703-7.75 2.844 0 4.297 2.046 4.297 6.093v11.157c-.047.656-.094 1-.344 1.25-.297.453-1.297.656-3.453.703h-.203v1.797h12.656v-1.797h-.203c-3.297-.11-3.75-.36-3.75-2.157v-8.843c0-5 2.25-8.203 5.75-8.203 2.859 0 4.25 2.156 4.25 6.656v10.547c-.047.703-.094 1.047-.344 1.297-.297.453-1.297.656-3.453.703h-.203v1.797h12.656v-1.797h-.203c-3.297-.11-3.75-.36-3.75-2.203v-11.344c0-3.11-.297-4.156-1.594-5.86-1.453-1.843-3.5-2.843-5.906-2.843-3.25 0-5.656 1.547-7.797 5-.859-3-3.562-5-6.906-5-3.047 0-5.25 1.453-7.203 4.593v-3.843m57.64 12.047c.047-7.5-4.203-12.797-10.296-12.797-6.407 0-11.204 5.547-11.204 13.047 0 7.046 4.547 11.75 11.297 11.75 4.797 0 8.157-2.344 10.203-7.094l-1.75-.953c-2.046 3.843-4.156 5.343-7.5 5.343-2.546 0-4.406-1.046-5.703-3.296-.89-1.5-1.297-3.25-1.25-6h16.203m-16.156-2.157c0-3.5 1.61-8.5 5.813-8.5 3 0 5 2.657 5 6.703 0 1.407-.453 1.797-2.063 1.797h-8.75m37.188-10.437h-1.75l-1.453 1.797c-1.797-1.407-3.594-2-6.094-2-4.406 0-7.297 2.843-7.297 7.25 0 4.703 3.047 5.89 7.047 6.843l2.64.61c3.954.937 5.36 1.937 5.36 3.937 0 2.36-2.047 4-4.953 4-4.25 0-7.25-2.687-8.453-7.687h-2v9.437h1.75l1.75-2.047c2.046 1.657 4.296 2.454 6.859 2.454 4.891 0 8.141-3.047 8.141-7.704 0-2.203-.704-3.89-2.094-5.046-1.203-1.047-2.203-1.454-5.25-2.094l-2.5-.563c-2.75-.593-2.75-.593-3.656-1.093-1.094-.5-1.75-1.547-1.75-2.657 0-2.047 1.906-3.437 4.656-3.437 4.094 0 6.094 2.89 7.297 6.39h1.75v-8.39M178.836 185.30749h-1.844l-2 3c-2.406-2.25-5.547-3.453-9.109-3.453-6.594 0-10.938 4.156-10.938 10.453 0 5.453 2.688 8.157 10.047 10.063l4.75 1.187c3.703.953 4.047 1.063 5.094 1.86 1.5 1.14 2.312 2.797 2.312 4.75 0 2-.765 3.64-2.265 5.047-1.641 1.406-3.297 1.953-6.047 1.953-7.547 0-11.297-5.547-12.594-12.297h-2.156l.203 14.25h1.953l2.25-3.406c3.344 2.75 6.094 3.75 10.5 3.75 7.344 0 12.047-4.297 12.047-11 0-3.157-1-5.75-3-7.657-1.344-1.297-3.297-2.14-7.297-3.14l-5.359-1.36c-4.438-1.14-6.547-3.093-6.547-6.14 0-3.5 2.859-5.907 7.109-5.907 6.438 0 10 5.344 11.344 11.047h2.156l-.609-13m17.266 12.36c-6.141 0-10.891 5.453-10.891 12.453 0 6.844 4.797 12.344 10.797 12.344 6 0 10.797-5.5 10.797-12.407 0-6.843-4.797-12.39-10.703-12.39m0 2.14c3.5 0 5.453 3.657 5.453 10.25 0 6.657-1.953 10.25-5.547 10.25-3.594 0-5.547-3.593-5.547-10.187 0-6.813 1.891-10.313 5.641-10.313m22.437-1.39-8.891.547v2.156h2.047c1.891.047 2.141.344 2.141 2.5v14.297c-.047.75-.094 1.047-.297 1.297-.344.453-1.297.656-3.453.703h-.188v1.797h12.594v-1.797h-.203c-3.297-.11-3.75-.36-3.75-2.203v-9.25c0-4.454 2.453-7.75 5.703-7.75 2.844 0 4.297 2.046 4.297 6.093v11.157c-.047.656-.094 1-.344 1.25-.297.453-1.297.656-3.453.703h-.203v1.797h12.656v-1.797h-.203c-3.297-.11-3.75-.36-3.75-2.157v-8.843c0-5 2.25-8.203 5.75-8.203 2.86 0 4.25 2.156 4.25 6.656v10.547c-.047.703-.094 1.047-.344 1.297-.296.453-1.296.656-3.453.703h-.203v1.797h12.656v-1.797h-.203c-3.297-.11-3.75-.36-3.75-2.203v-11.344c0-3.11-.297-4.156-1.593-5.86-1.454-1.843-3.5-2.843-5.907-2.843-3.25 0-5.656 1.547-7.797 5-.859-3-3.562-5-6.906-5-3.047 0-5.25 1.453-7.203 4.593v-3.843m57.641 12.047c.047-7.5-4.203-12.797-10.297-12.797-6.406 0-11.203 5.547-11.203 13.047 0 7.046 4.547 11.75 11.297 11.75 4.796 0 8.156-2.344 10.203-7.094l-1.75-.953c-2.047 3.843-4.157 5.343-7.5 5.343-2.547 0-4.407-1.046-5.703-3.296-.891-1.5-1.297-3.25-1.25-6h16.203m-16.157-2.157c0-3.5 1.61-8.5 5.813-8.5 3 0 5 2.657 5 6.703 0 1.407-.453 1.797-2.063 1.797h-8.75" class="Lyrics"/>
    <path fill="none" stroke="#000" stroke-linejoin="bevel" stroke-width="2.48" d="M1132.851 210.29600000000005 1142.771 210.29600000000005M277.77900000000005 210.29600000000005 287.699 210.29600000000005" class="LyricsLineSegment"/>
    <path d="m 380.451,48.313487 c 0,2.774508 2.18551,4.960005 4.96,4.960005 2.77451,0 4.96001,-2.185497 4.96001,-4.960005 0,-2.774508 -2.1855,-4.960005 -4.96001,-4.960005 -2.77449,0 -4.96,2.185497 -4.96,4.960005" class="NoteDot" style="stroke-width:.992001"/>
</svg>
